<?xml version="1.0" standalone="no"?>
<!DOCTYPE svg PUBLIC "-//W3C//DTD SVG 20010904//EN"
 "http://www.w3.org/TR/2001/REC-SVG-20010904/DTD/svg10.dtd">
<svg version="1.0" xmlns="http://www.w3.org/2000/svg"
 width="1024.000000pt" height="529.000000pt" viewBox="0 0 1024.000000 529.000000"
 preserveAspectRatio="xMidYMid meet">

<g transform="translate(0.000000,529.000000) scale(0.100000,-0.100000)"
fill="#000000" stroke="none">
<path d="M4363 3419 c-153 -154 -279 -284 -281 -288 -2 -5 93 -103 210 -219
l213 -211 -212 -213 c-117 -118 -213 -216 -213 -219 0 -2 125 -131 278 -286
l277 -282 675 -1 c371 -1 688 -1 705 -1 28 1 18 13 -150 181 l-180 180 -455 0
-455 0 -98 98 c-53 53 -97 102 -97 107 0 6 93 106 206 223 l207 213 -207 208
c-113 114 -206 214 -206 222 0 8 44 58 98 112 l97 97 455 0 454 0 180 180 181
180 -702 0 -703 0 -277 -281z"/>
<path d="M4880 3125 c0 -3 91 -98 203 -211 111 -113 203 -209 205 -213 2 -5
-89 -103 -202 -217 l-205 -209 240 -3 c182 -2 244 1 257 10 10 7 107 104 217
216 l199 203 -215 215 -215 214 -242 0 c-133 0 -242 -2 -242 -5z"/>
</g>
</svg>
